<svg id="SvgjsSvg1001" width="288" height="288" xmlns="http://www.w3.org/2000/svg" version="1.1" xmlns:xlink="http://www.w3.org/1999/xlink" xmlns:svgjs="http://svgjs.com/svgjs"><defs id="SvgjsDefs1002"></defs><g id="SvgjsG1008" transform="matrix(1,0,0,1,0,0)"><svg xmlns="http://www.w3.org/2000/svg" width="288" height="288" fill="none" viewBox="0 0 18 20"><path fill="#918e9b" d="M0.428589 0L1.98662 17.6696L9.00002 20L16.0134 17.6696L17.5714 0H0.428589ZM14.4063 3.57143L14.192 5.68304L9.04466 7.88393L9.03127 7.88839H14.0089L13.4375 14.433L9.05359 15.7143L4.64287 14.4107L4.35716 11.1116H6.5402L6.68305 12.8214L9.03127 13.4152L11.4732 12.7277L11.6384 9.97768L4.2143 9.95536V9.95089L4.20537 9.95536L4.04466 7.88839L9.04912 5.80357L9.3393 5.68304H3.8527L3.59377 3.57143H14.4063Z" class="color000 svgShape"></path></svg></g></svg>