<svg id="SvgjsSvg1001" width="288" height="288" xmlns="http://www.w3.org/2000/svg" version="1.1" xmlns:xlink="http://www.w3.org/1999/xlink" xmlns:svgjs="http://svgjs.com/svgjs"><defs id="SvgjsDefs1002"></defs><g id="SvgjsG1008" transform="matrix(1,0,0,1,0,0)"><svg xmlns="http://www.w3.org/2000/svg" width="288" height="288" fill="none" viewBox="0 0 20 20"><path fill="#918e9b" d="M10 0C4.4879 0 0 4.48387 0 10C0 15.5121 4.4879 20 10 20C15.5121 20 20 15.5121 20 10C20 4.48387 15.5121 0 10 0ZM1.00806 10C1.00806 8.69758 1.28629 7.45968 1.78629 6.34274L6.07661 18.0927C3.07661 16.6331 1.00806 13.5565 1.00806 10ZM10 18.9919C9.11693 18.9919 8.26613 18.8629 7.45968 18.625L10.1573 10.7863L12.9194 18.3589C12.9395 18.4032 12.9597 18.4435 12.9839 18.4839C12.0524 18.8105 11.0484 18.9919 10 18.9919ZM11.2379 5.78629C11.7782 5.75806 12.2661 5.70161 12.2661 5.70161C12.75 5.64516 12.6935 4.93145 12.2097 4.95968C12.2097 4.95968 10.754 5.07258 9.81452 5.07258C8.93145 5.07258 7.44758 4.95968 7.44758 4.95968C6.96371 4.93145 6.90726 5.67339 7.39113 5.70161C7.39113 5.70161 7.85081 5.75806 8.33468 5.78629L9.73387 9.625L7.76613 15.5242L4.49194 5.78629C5.03226 5.75806 5.52016 5.70161 5.52016 5.70161C6.00403 5.64516 5.94758 4.93145 5.46371 4.95968C5.46371 4.95968 4.00806 5.07258 3.06855 5.07258C2.89919 5.07258 2.70161 5.06855 2.4879 5.06048C4.09677 2.62097 6.85887 1.00806 10 1.00806C12.3387 1.00806 14.4718 1.90323 16.0726 3.36694C16.0323 3.3629 15.996 3.35887 15.9556 3.35887C15.0726 3.35887 14.4476 4.12903 14.4476 4.95564C14.4476 5.69758 14.875 6.32258 15.3306 7.06452C15.6734 7.66129 16.0726 8.43145 16.0726 9.54435C16.0726 10.3145 15.7782 11.2056 15.3871 12.4516L14.4919 15.4476L11.2379 5.78629ZM14.5202 17.7702L17.2661 9.83064C17.7782 8.54839 17.9516 7.52419 17.9516 6.60887C17.9516 6.27823 17.9315 5.97177 17.8911 5.68548C18.5927 6.96774 18.9919 8.43548 18.9919 10C18.9919 13.3185 17.1935 16.2137 14.5202 17.7702Z" class="color000 svgShape"></path></svg></g></svg>