<svg id="SvgjsSvg1001" width="288" height="288" xmlns="http://www.w3.org/2000/svg" version="1.1" xmlns:xlink="http://www.w3.org/1999/xlink" xmlns:svgjs="http://svgjs.com/svgjs"><defs id="SvgjsDefs1002"></defs><g id="SvgjsG1008" transform="matrix(1,0,0,1,0,0)"><svg xmlns="http://www.w3.org/2000/svg" width="288" height="288" fill="none" viewBox="0 0 20 18"><path fill="#918e9b" d="M16.3359 5.9209C16.125 5.85059 15.9141 5.78418 15.7031 5.72168C15.7383 5.57715 15.7695 5.43262 15.8008 5.28809C16.2812 2.95996 15.9648 1.08887 14.8984 0.47168C13.8711 -0.118164 12.1953 0.495117 10.5 1.97168C10.332 2.11621 10.168 2.26855 10.0117 2.4209C9.90625 2.31934 9.79688 2.21777 9.6875 2.12012C7.91016 0.541992 6.12891 -0.12207 5.0625 0.499023C4.03906 1.09277 3.73438 2.85449 4.16406 5.05762C4.20703 5.27637 4.25391 5.49121 4.30859 5.70996C4.05859 5.78027 3.8125 5.8584 3.58203 5.94043C1.49609 6.66309 0 7.80371 0 8.9834C0 10.2021 1.59375 11.4248 3.76172 12.167C3.9375 12.2256 4.11328 12.2842 4.29297 12.335C4.23438 12.5693 4.18359 12.7998 4.13672 13.0381C3.72656 15.2061 4.04688 16.9248 5.07031 17.5146C6.125 18.124 7.89844 17.499 9.625 15.9873C9.76172 15.8662 9.89844 15.7412 10.0352 15.6084C10.207 15.7764 10.3867 15.9365 10.5664 16.0928C12.2383 17.5303 13.8906 18.1123 14.9102 17.5225C15.9648 16.9131 16.3086 15.0654 15.8633 12.8154C15.8281 12.6436 15.7891 12.4678 15.7461 12.2881C15.8711 12.2529 15.9922 12.2139 16.1133 12.1748C18.3672 11.4287 20 10.2217 20 8.9834C20 7.7998 18.4609 6.65137 16.3359 5.9209ZM11.0508 2.60449C12.5039 1.33887 13.8594 0.842773 14.4766 1.19824C15.1367 1.57715 15.3906 3.1084 14.9766 5.12012C14.9492 5.25293 14.9219 5.38184 14.8867 5.51074C14.0195 5.31543 13.1406 5.1748 12.2578 5.09668C11.75 4.37012 11.1953 3.6748 10.5938 3.02246C10.7461 2.87793 10.8945 2.74121 11.0508 2.60449ZM6.53125 11.0107C6.73047 11.3506 6.93359 11.6904 7.14844 12.0225C6.53906 11.9561 5.93359 11.8584 5.33594 11.7295C5.50781 11.167 5.72266 10.585 5.97266 9.99121C6.15234 10.335 6.33594 10.6748 6.53125 11.0107ZM5.34766 6.31152C5.91016 6.18652 6.50781 6.08496 7.12891 6.00683C6.92188 6.33105 6.71875 6.66309 6.52734 6.99902C6.33594 7.33105 6.14844 7.6709 5.97266 8.01465C5.72656 7.43262 5.51953 6.8623 5.34766 6.31152ZM6.41797 9.00293C6.67578 8.46387 6.95703 7.93652 7.25391 7.41699C7.55078 6.89746 7.87109 6.39355 8.20703 5.89746C8.79297 5.85449 9.39062 5.83105 10 5.83105C10.6094 5.83105 11.2109 5.85449 11.793 5.89746C12.125 6.38965 12.4414 6.89355 12.7422 7.40918C13.043 7.9248 13.3242 8.45215 13.5898 8.9873C13.3281 9.52637 13.0469 10.0576 12.7461 10.5811C12.4492 11.1006 12.1328 11.6045 11.8008 12.1045C11.2188 12.1475 10.6133 12.167 10 12.167C9.38672 12.167 8.79297 12.1475 8.21875 12.1123C7.87891 11.6162 7.55859 11.1084 7.25781 10.5889C6.95703 10.0693 6.67969 9.54199 6.41797 9.00293ZM13.4727 11.0029C13.6719 10.6592 13.8594 10.3115 14.043 9.95996C14.293 10.5264 14.5117 11.1006 14.7031 11.6904C14.0977 11.8271 13.4844 11.9326 12.8672 12.0029C13.0781 11.6748 13.2773 11.3389 13.4727 11.0029ZM14.0352 8.01465C13.8516 7.6709 13.6641 7.32715 13.4688 6.99121C13.2773 6.65918 13.0781 6.33105 12.8711 6.00683C13.5 6.08496 14.1016 6.19043 14.6641 6.31933C14.4844 6.89746 14.2734 7.45996 14.0352 8.01465ZM10.0078 3.62012C10.418 4.06543 10.8047 4.53418 11.1641 5.01855C10.3906 4.9834 9.61328 4.9834 8.83984 5.01855C9.22266 4.51465 9.61719 4.0459 10.0078 3.62012ZM5.47656 1.22559C6.13281 0.842773 7.58984 1.38965 9.125 2.74902C9.22266 2.83496 9.32031 2.92871 9.42188 3.02246C8.81641 3.6748 8.25781 4.37012 7.74609 5.09668C6.86328 5.1748 5.98828 5.31152 5.12109 5.50293C5.07031 5.30371 5.02734 5.10059 4.98438 4.89746C4.61719 3.00684 4.85938 1.58105 5.47656 1.22559ZM4.51953 11.5225C4.35547 11.4756 4.19531 11.4248 4.03516 11.3701C3.20313 11.1084 2.25781 10.6943 1.57422 10.1514C1.17969 9.87793 0.914062 9.45605 0.839844 8.9834C0.839844 8.26855 2.07422 7.35449 3.85547 6.7334C4.07812 6.65527 4.30469 6.58496 4.53125 6.51855C4.79688 7.36621 5.11719 8.19824 5.48828 9.00293C5.11328 9.81934 4.78906 10.6631 4.51953 11.5225ZM9.07422 15.3506C8.42969 15.9404 7.68359 16.4092 6.87109 16.7295C6.4375 16.9365 5.9375 16.9561 5.49219 16.7803C4.87109 16.4209 4.61328 15.042 4.96484 13.1865C5.00781 12.9678 5.05469 12.749 5.10938 12.5342C5.98438 12.7217 6.86719 12.8506 7.76172 12.917C8.27734 13.6475 8.84375 14.3467 9.44922 15.0029C9.32422 15.124 9.19922 15.2412 9.07422 15.3506ZM10.0312 14.4014C9.63281 13.9717 9.23438 13.4951 8.84766 12.9834C9.22266 12.999 9.60938 13.0068 10 13.0068C10.4023 13.0068 10.7969 12.999 11.1875 12.9795C10.8281 13.4756 10.4414 13.9482 10.0312 14.4014ZM15.1367 15.5732C15.1016 16.0498 14.8672 16.4951 14.4922 16.7959C13.8711 17.1553 12.5469 16.6865 11.1172 15.46C10.9531 15.3193 10.7891 15.167 10.6211 15.0107C11.2188 14.3506 11.7695 13.6514 12.2695 12.917C13.1641 12.8428 14.0547 12.7061 14.9336 12.5068C14.9727 12.667 15.0078 12.8271 15.0391 12.9834C15.2305 13.8271 15.2617 14.7061 15.1367 15.5732ZM15.8477 11.374C15.7383 11.4092 15.6289 11.4443 15.5156 11.4756C15.2422 10.624 14.9062 9.79199 14.5195 8.9834C14.8945 8.18652 15.2109 7.36621 15.4766 6.52637C15.6797 6.58496 15.875 6.64746 16.0625 6.70996C17.8828 7.33496 19.1602 8.26465 19.1602 8.97558C19.1602 9.74121 17.7969 10.7295 15.8477 11.374ZM10 10.7881C10.9883 10.7881 11.7891 9.9873 11.7891 8.99902C11.7891 8.01074 10.9883 7.20996 10 7.20996C9.01172 7.20996 8.21094 8.01074 8.21094 8.99902C8.21094 9.9873 9.01172 10.7881 10 10.7881Z" class="color000 svgShape"></path></svg></g></svg>